<svg width="90" height="21" viewBox="0 0 90 21" fill="none" xmlns="http://www.w3.org/2000/svg">
<path d="M4.05256 11.9659H5.62074L6.40909 12.9801L7.18466 13.8835L8.64631 15.7159H6.92472L5.91903 14.4801L5.40341 13.7472L4.05256 11.9659ZM8.77841 10.6364C8.77841 11.5881 8.59801 12.3977 8.23722 13.0653C7.87926 13.733 7.39063 14.2429 6.77131 14.5952C6.15483 14.9446 5.46165 15.1193 4.69176 15.1193C3.91619 15.1193 3.22017 14.9432 2.60369 14.5909C1.98722 14.2386 1.5 13.7287 1.14205 13.0611C0.784091 12.3935 0.605114 11.5852 0.605114 10.6364C0.605114 9.68466 0.784091 8.875 1.14205 8.20739C1.5 7.53977 1.98722 7.03125 2.60369 6.68182C3.22017 6.32955 3.91619 6.15341 4.69176 6.15341C5.46165 6.15341 6.15483 6.32955 6.77131 6.68182C7.39063 7.03125 7.87926 7.53977 8.23722 8.20739C8.59801 8.875 8.77841 9.68466 8.77841 10.6364ZM6.90767 10.6364C6.90767 10.0199 6.81534 9.5 6.63068 9.0767C6.44886 8.65341 6.19176 8.33239 5.85938 8.11364C5.52699 7.89489 5.13778 7.78551 4.69176 7.78551C4.24574 7.78551 3.85653 7.89489 3.52415 8.11364C3.19176 8.33239 2.93324 8.65341 2.74858 9.0767C2.56676 9.5 2.47585 10.0199 2.47585 10.6364C2.47585 11.2528 2.56676 11.7727 2.74858 12.196C2.93324 12.6193 3.19176 12.9403 3.52415 13.1591C3.85653 13.3778 4.24574 13.4872 4.69176 13.4872C5.13778 13.4872 5.52699 13.3778 5.85938 13.1591C6.19176 12.9403 6.44886 12.6193 6.63068 12.196C6.81534 11.7727 6.90767 11.2528 6.90767 10.6364ZM14.3086 12.2131V8.45455H16.1239V15H14.381V13.8111H14.3129C14.1651 14.1946 13.9194 14.5028 13.5756 14.7358C13.2347 14.9687 12.8185 15.0852 12.3271 15.0852C11.8896 15.0852 11.5046 14.9858 11.1722 14.7869C10.8398 14.5881 10.5799 14.3054 10.3924 13.9389C10.2077 13.5724 10.114 13.1335 10.1112 12.6222V8.45455H11.9265V12.2983C11.9293 12.6847 12.033 12.9901 12.2376 13.2145C12.4421 13.4389 12.7163 13.5511 13.06 13.5511C13.2788 13.5511 13.4833 13.5014 13.6737 13.402C13.864 13.2997 14.0174 13.1491 14.1339 12.9503C14.2532 12.7514 14.3114 12.5057 14.3086 12.2131ZM17.576 15V8.45455H19.3913V15H17.576ZM18.4879 7.6108C18.218 7.6108 17.9865 7.52131 17.7933 7.34233C17.603 7.16051 17.5078 6.94318 17.5078 6.69034C17.5078 6.44034 17.603 6.22585 17.7933 6.04688C17.9865 5.86506 18.218 5.77415 18.4879 5.77415C18.7578 5.77415 18.9879 5.86506 19.1783 6.04688C19.3714 6.22585 19.468 6.44034 19.468 6.69034C19.468 6.94318 19.3714 7.16051 19.1783 7.34233C18.9879 7.52131 18.7578 7.6108 18.4879 7.6108ZM23.8029 15.1278C23.1325 15.1278 22.5558 14.9858 22.0728 14.7017C21.5927 14.4148 21.2234 14.017 20.9648 13.5085C20.7092 13 20.5813 12.4148 20.5813 11.7528C20.5813 11.0824 20.7106 10.4943 20.9691 9.98864C21.2305 9.48011 21.6012 9.08381 22.0813 8.79972C22.5614 8.51278 23.1325 8.36932 23.7944 8.36932C24.3654 8.36932 24.8654 8.47301 25.2944 8.6804C25.7234 8.88778 26.0629 9.17898 26.3129 9.55398C26.5629 9.92898 26.7006 10.3693 26.7262 10.875H25.0131C24.9648 10.5483 24.837 10.2855 24.6296 10.0866C24.4251 9.88494 24.1566 9.78409 23.8242 9.78409C23.543 9.78409 23.2972 9.8608 23.087 10.0142C22.8796 10.1648 22.7177 10.3849 22.6012 10.6747C22.4847 10.9645 22.4265 11.3153 22.4265 11.7273C22.4265 12.1449 22.4833 12.5 22.5969 12.7926C22.7134 13.0852 22.8768 13.3082 23.087 13.4616C23.2972 13.6151 23.543 13.6918 23.8242 13.6918C24.0316 13.6918 24.2177 13.6491 24.3825 13.5639C24.5501 13.4787 24.6879 13.3551 24.7958 13.1932C24.9066 13.0284 24.979 12.831 25.0131 12.6009H26.7262C26.6978 13.1009 26.5614 13.5412 26.3171 13.9219C26.0756 14.2997 25.7418 14.5952 25.3157 14.8082C24.8896 15.0213 24.3853 15.1278 23.8029 15.1278ZM29.5334 13.1165L29.5376 10.9389H29.8018L31.8984 8.45455H33.9822L31.1655 11.7443H30.7351L29.5334 13.1165ZM27.8885 15V6.27273H29.7038V15H27.8885ZM31.9794 15L30.0533 12.1491L31.2635 10.8665L34.1058 15H31.9794ZM45.3846 9.32812H43.5181C43.484 9.08665 43.4144 8.87216 43.3093 8.68466C43.2042 8.49432 43.0692 8.33239 42.9045 8.19886C42.7397 8.06534 42.5494 7.96307 42.3335 7.89205C42.1204 7.82102 41.8888 7.78551 41.6388 7.78551C41.1871 7.78551 40.7937 7.89773 40.4585 8.12216C40.1232 8.34375 39.8633 8.66761 39.6786 9.09375C39.494 9.51705 39.4016 10.0312 39.4016 10.6364C39.4016 11.2585 39.494 11.7812 39.6786 12.2045C39.8661 12.6278 40.1275 12.9474 40.4627 13.1634C40.7979 13.3793 41.1857 13.4872 41.6261 13.4872C41.8732 13.4872 42.1019 13.4545 42.3121 13.3892C42.5252 13.3239 42.7141 13.2287 42.8789 13.1037C43.0437 12.9759 43.18 12.821 43.288 12.6392C43.3988 12.4574 43.4755 12.25 43.5181 12.017L45.3846 12.0256C45.3363 12.4261 45.2156 12.8125 45.0224 13.1847C44.832 13.554 44.5749 13.8849 44.2511 14.1776C43.93 14.4673 43.5465 14.6974 43.1005 14.8679C42.6573 15.0355 42.1559 15.1193 41.5962 15.1193C40.8178 15.1193 40.1218 14.9432 39.5082 14.5909C38.8974 14.2386 38.4144 13.7287 38.0593 13.0611C37.707 12.3935 37.5309 11.5852 37.5309 10.6364C37.5309 9.68466 37.7099 8.875 38.0678 8.20739C38.4258 7.53977 38.9116 7.03125 39.5252 6.68182C40.1388 6.32955 40.8292 6.15341 41.5962 6.15341C42.1019 6.15341 42.5707 6.22443 43.0025 6.36648C43.4371 6.50852 43.8221 6.71591 44.1573 6.98864C44.4925 7.25852 44.7653 7.58949 44.9755 7.98153C45.1886 8.37358 45.3249 8.82244 45.3846 9.32812ZM48.5401 15.1236C48.1225 15.1236 47.7504 15.0511 47.4237 14.9062C47.0969 14.7585 46.8384 14.5412 46.6481 14.2543C46.4606 13.9645 46.3668 13.6037 46.3668 13.1719C46.3668 12.8082 46.4336 12.5028 46.5671 12.2557C46.7006 12.0085 46.8825 11.8097 47.1126 11.6591C47.3427 11.5085 47.604 11.3949 47.8967 11.3182C48.1921 11.2415 48.5018 11.1875 48.8256 11.1562C49.2063 11.1165 49.5131 11.0795 49.7461 11.0455C49.979 11.0085 50.1481 10.9545 50.2532 10.8835C50.3583 10.8125 50.4109 10.7074 50.4109 10.5682V10.5426C50.4109 10.2727 50.3256 10.0639 50.1552 9.91619C49.9876 9.76847 49.7489 9.6946 49.4393 9.6946C49.1126 9.6946 48.8526 9.76705 48.6594 9.91193C48.4663 10.054 48.3384 10.233 48.2759 10.4489L46.5969 10.3125C46.6822 9.91477 46.8498 9.57102 47.0998 9.28125C47.3498 8.98864 47.6722 8.7642 48.0671 8.60795C48.4648 8.44886 48.9251 8.36932 49.4478 8.36932C49.8114 8.36932 50.1594 8.41193 50.4918 8.49716C50.8271 8.58239 51.1239 8.71449 51.3825 8.89347C51.6438 9.07244 51.8498 9.30256 52.0004 9.58381C52.1509 9.86222 52.2262 10.196 52.2262 10.5852V15H50.5046V14.0923H50.4535C50.3484 14.2969 50.2077 14.4773 50.0316 14.6335C49.8555 14.7869 49.6438 14.9077 49.3967 14.9957C49.1495 15.081 48.864 15.1236 48.5401 15.1236ZM49.06 13.8707C49.3271 13.8707 49.5629 13.8182 49.7674 13.7131C49.9719 13.6051 50.1325 13.4602 50.2489 13.2784C50.3654 13.0966 50.4237 12.8906 50.4237 12.6605V11.9659C50.3668 12.0028 50.2887 12.0369 50.1893 12.0682C50.0927 12.0966 49.9833 12.1236 49.8612 12.1491C49.739 12.1719 49.6168 12.1932 49.4947 12.2131C49.3725 12.2301 49.2617 12.2457 49.1623 12.2599C48.9492 12.2912 48.7631 12.3409 48.604 12.4091C48.445 12.4773 48.3214 12.5696 48.2333 12.6861C48.1452 12.7997 48.1012 12.9418 48.1012 13.1122C48.1012 13.3594 48.1907 13.5483 48.3697 13.679C48.5515 13.8068 48.7816 13.8707 49.06 13.8707ZM53.6346 15V8.45455H55.3945V9.59659H55.4627C55.582 9.19034 55.7823 8.88352 56.0636 8.67614C56.3448 8.46591 56.6687 8.3608 57.0352 8.3608C57.1261 8.3608 57.2241 8.36648 57.3292 8.37784C57.4343 8.3892 57.5266 8.40483 57.6062 8.42472V10.0355C57.521 10.0099 57.4031 9.98722 57.2525 9.96733C57.1019 9.94744 56.9641 9.9375 56.8391 9.9375C56.5721 9.9375 56.3335 9.99574 56.1232 10.1122C55.9158 10.2259 55.7511 10.3849 55.6289 10.5895C55.5096 10.794 55.4499 11.0298 55.4499 11.2969V15H53.6346ZM62.3544 8.45455V9.81818H58.4126V8.45455H62.3544ZM59.3075 6.88636H61.1229V12.9886C61.1229 13.1562 61.1484 13.2869 61.1996 13.3807C61.2507 13.4716 61.3217 13.5355 61.4126 13.5724C61.5064 13.6094 61.6143 13.6278 61.7365 13.6278C61.8217 13.6278 61.907 13.6207 61.9922 13.6065C62.0774 13.5895 62.1428 13.5767 62.1882 13.5682L62.4737 14.919C62.3828 14.9474 62.255 14.9801 62.0902 15.017C61.9254 15.0568 61.7251 15.081 61.4893 15.0895C61.0518 15.1065 60.6683 15.0483 60.3388 14.9148C60.0121 14.7812 59.7578 14.5739 59.576 14.2926C59.3942 14.0114 59.3047 13.6562 59.3075 13.2273V6.88636Z" fill="#E27210"/>
<path d="M83.5938 13.8618L86.6531 1.88291H90V0H85.1907L84.4695 2.8238L65 2.80988L67.0699 13.8617H83.5938V13.8618ZM83.9887 4.70638L82.1314 11.9788H68.6329L67.2686 4.69442L83.9887 4.70638Z" fill="#E27210"/>
<path d="M81.0163 20.7236C82.6766 20.7236 84.0273 19.3728 84.0273 17.7125C84.0273 16.0522 82.6766 14.7015 81.0163 14.7015H69.6717C68.0114 14.7015 66.6606 16.0522 66.6606 17.7125C66.6606 19.3728 68.0114 20.7236 69.6717 20.7236C71.3321 20.7236 72.6828 19.3728 72.6828 17.7125C72.6828 17.3138 72.6047 16.933 72.4633 16.5844H78.2247C78.0833 16.933 78.0052 17.3138 78.0052 17.7125C78.0052 19.3728 79.356 20.7236 81.0163 20.7236ZM70.7999 17.7125C70.7999 18.3346 70.2938 18.8407 69.6717 18.8407C69.0497 18.8407 68.5436 18.3346 68.5436 17.7125C68.5436 17.0905 69.0496 16.5844 69.6717 16.5844C70.2938 16.5844 70.7999 17.0905 70.7999 17.7125ZM82.1445 17.7125C82.1445 18.3346 81.6384 18.8407 81.0163 18.8407C80.3942 18.8407 79.8881 18.3346 79.8881 17.7125C79.8881 17.0905 80.3942 16.5844 81.0163 16.5844C81.6384 16.5844 82.1445 17.0905 82.1445 17.7125Z" fill="#E27210"/>
</svg>
