<svg width="25" height="21" viewBox="0 0 25 21" fill="none" xmlns="http://www.w3.org/2000/svg">
<path d="M18.5938 13.8618L21.6531 1.88291H25V0H20.1907L19.4695 2.8238L0 2.80988L2.06989 13.8617H18.5938V13.8618ZM18.9887 4.70638L17.1314 11.9788H3.63287L2.26857 4.69442L18.9887 4.70638Z" fill="#E27210"/>
<path d="M16.0163 20.7236C17.6766 20.7236 19.0273 19.3728 19.0273 17.7125C19.0273 16.0522 17.6766 14.7015 16.0163 14.7015H4.67174C3.01143 14.7015 1.66064 16.0522 1.66064 17.7125C1.66064 19.3728 3.0114 20.7236 4.67174 20.7236C6.33207 20.7236 7.68281 19.3728 7.68281 17.7125C7.68281 17.3138 7.6047 16.933 7.46331 16.5844H13.2247C13.0833 16.933 13.0052 17.3138 13.0052 17.7125C13.0052 19.3728 14.356 20.7236 16.0163 20.7236ZM5.7999 17.7125C5.7999 18.3346 5.29382 18.8407 4.67174 18.8407C4.04966 18.8407 3.54355 18.3346 3.54355 17.7125C3.54355 17.0905 4.04963 16.5844 4.67174 16.5844C5.29382 16.5844 5.7999 17.0905 5.7999 17.7125ZM17.1445 17.7125C17.1445 18.3346 16.6384 18.8407 16.0163 18.8407C15.3942 18.8407 14.8881 18.3346 14.8881 17.7125C14.8881 17.0905 15.3942 16.5844 16.0163 16.5844C16.6384 16.5844 17.1445 17.0905 17.1445 17.7125Z" fill="#E27210"/>
</svg>
